<?xml version="1.0" standalone="no"?><!DOCTYPE svg PUBLIC "-//W3C//DTD SVG 1.1//EN" "http://www.w3.org/Graphics/SVG/1.1/DTD/svg11.dtd"><svg t="1528299151545" class="icon" style="" viewBox="0 0 1024 1024" version="1.1" xmlns="http://www.w3.org/2000/svg" p-id="11555" xmlns:xlink="http://www.w3.org/1999/xlink" width="200" height="200"><defs><style type="text/css"></style></defs><path d="M131.031478 171.809333c-24.45648 0-44.410513-19.237734-44.410513-42.875587 0-23.740182 19.954032-43.080244 44.512841-43.080243h761.118417c24.661137 0 44.717498 19.340062 44.717498 43.080243 0 23.637854-20.056361 42.875587-44.717498 42.875587H131.031478zM509.851104 938.248826c-23.740182 0-43.080244-19.954032-43.080244-44.512841v-535.689018L152.418107 671.78575C145.050465 679.153393 135.124613 683.246527 124.277806 683.246527c-12.074748 0-24.251824-5.116419-33.154392-14.121315-8.902568-8.80024-14.018987-20.772659-14.018987-32.745078 0-10.846807 3.990806-20.874988 11.358449-28.344959l389.87109-389.154791 0.102329-0.102329c0.511642-0.511642 0.920955-1.023284 1.22794-1.432597 0.102328-0.102328 0.102328-0.204657 0.204657-0.204657 0.102328-0.102328 0.204657-0.102328 0.306985-0.204656 0.409313-0.306985 0.920955-0.716299 1.432597-1.227941l0.102328-0.102328 1.125613-1.125612c8.80024-8.80024 19.544719-10.949136 26.912361-11.153793h0.306985l0.818627-0.102328c0.409313 0 0.716299-0.102328 1.125612-0.102328 0.409313 0 0.716299 0 1.125612 0.102328l0.920955 0.102328h0.102329c7.367643 0.204657 18.112122 2.353553 26.912361 11.153793l0.920955 0.920955 0.204657 0.102329c0.61397 0.511642 1.125612 0.920955 1.534926 1.22794 0.204657 0.102328 0.306985 0.306985 0.511642 0.409313 0.102328 0.102328 0.204657 0.306985 0.306985 0.511642 0.306985 0.409313 0.716299 0.920955 1.22794 1.534926l0.102329 0.204657 389.564105 388.745478c7.367643 7.367643 11.460777 17.293495 11.460777 28.037973 0 11.972419-5.116419 24.047167-14.121315 32.949735-8.902568 9.004897-20.977316 14.121315-33.052064 14.121315-10.846807 0-20.874988-4.093135-28.24263-11.460777l-318.650544-318.241231v540.191466c0 24.558809-19.340062 44.512841-42.977916 44.512841z" p-id="11556"></path></svg>