<?xml version="1.0" standalone="no"?><!DOCTYPE svg PUBLIC "-//W3C//DTD SVG 1.1//EN" "http://www.w3.org/Graphics/SVG/1.1/DTD/svg11.dtd"><svg t="1528300728760" class="icon" style="" viewBox="0 0 1024 1024" version="1.1" xmlns="http://www.w3.org/2000/svg" p-id="4649" xmlns:xlink="http://www.w3.org/1999/xlink" width="200" height="200"><defs><style type="text/css"></style></defs><path d="M664.106 39.928C402.7-44.491 121.409 99.529 36.991 360.934-47.428 622.28 96.592 903.637 357.936 988.057c261.406 84.354 542.697-59.607 627.115-321.009 84.419-261.406-59.601-542.697-320.945-627.115z m-60.151 253.928l144.811-47.321-0.12-93.966c96.942 63.862 163.184 163.485 186.168 274.783l-85.691-33.513-96.587 117.871-106.551-6.265-76.511-104.914 34.484-106.675zM533.953 82.137l-55.711 77.005 89.765 123.098-33.574 104.124-125.163 40.932-88.8-57.107-8.633-152.053-91.598-24.202C304.717 117.423 417.54 76.003 533.953 82.142zM163.31 602.086l-52.487 75.785C73.664 587.37 66.669 484.1 98.297 383.927l49.932 61.061c-5.657 30.291-7.302 60.759-5.291 90.872 0.606 8.448 1.456 16.964 2.611 25.419 0.12 0.848 0.976 3.105 3.164 2.977 2.07-0.18 2.917-2.37 2.917-3.105-0.238-8.329-0.238-16.725 0.245-25.059 1.092-27.308 5.718-54.74 13.261-81.806l134.897-52.431 87.34 56.202 0.245 128.213-78.4 59.659-145.906-43.853z m214.698 323.936c-47.804-15.45-90.746-38.805-128.573-67.635l75.045-26.211c26.521 15.442 54.558 27.368 83.446 35.635a314.477 314.477 0 0 0 24.817 6.145c0.848 0.186 3.284 0.06 3.891-1.944 0.489-2.07-1.277-3.525-1.944-3.832a365.68 365.68 0 0 1-23.476-8.696c-26.705-10.886-52.066-25.483-76.029-43.002l-3.164-140.554 77.308-58.748 125.654 40.56 28.465 93.359-91.777 121.642 51.45 73.528c-47.923 1.405-96.942-4.676-145.111-20.246z m364.006-46.228l1.522-82.832c14.959-12.347 29.192-25.427 41.9-39.897 5.657-6.329 11.008-13.015 16.177-19.768 0.548-0.668 1.462-2.977-0.06-4.315-1.642-1.4-3.77-0.429-4.254 0.12-5.84 5.956-11.735 11.856-18.004 17.514-14.232 13.015-29.986 24.632-46.468 35.397l-133.256-45.978-29.56-96.824 72.497-100.173 107.834 6.326 82.229 128.273 87.462-22.868c-33.265 96.578-97.374 174.244-178.024 225.028z m0 0z" fill="#d81e06" p-id="4650"></path></svg>